<svg width="24" height="24" viewBox="0 0 24 24" fill="none" xmlns="http://www.w3.org/2000/svg">
<path d="M20 17.0909C20 17.4767 19.8468 17.8467 19.574 18.1194C19.3012 18.3922 18.9312 18.5455 18.5455 18.5455H5.45455C5.06878 18.5455 4.69881 18.3922 4.42603 18.1194C4.15325 17.8467 4 17.4767 4 17.0909V9.09092C4 8.70515 4.15325 8.33518 4.42603 8.0624C4.69881 7.78962 5.06878 7.63638 5.45455 7.63638H8.36364L9.81818 5.45456H14.1818L15.6364 7.63638H18.5455C18.9312 7.63638 19.3012 7.78962 19.574 8.0624C19.8468 8.33518 20 8.70515 20 9.09092V17.0909Z" stroke="#1D202B" stroke-width="1.5" stroke-linecap="round" stroke-linejoin="round"/>
<path d="M12 15.6364C13.6066 15.6364 14.9091 14.3339 14.9091 12.7273C14.9091 11.1207 13.6066 9.81821 12 9.81821C10.3934 9.81821 9.09091 11.1207 9.09091 12.7273C9.09091 14.3339 10.3934 15.6364 12 15.6364Z" stroke="#1D202B" stroke-width="1.5" stroke-linecap="round" stroke-linejoin="round"/>
</svg>
