<svg width="24" height="24" viewBox="0 0 24 24" fill="none" xmlns="http://www.w3.org/2000/svg">
<path d="M13.875 2H6.375C5.87772 2 5.40081 2.21071 5.04917 2.58579C4.69754 2.96086 4.5 3.46957 4.5 4V20C4.5 20.5304 4.69754 21.0391 5.04917 21.4142C5.40081 21.7893 5.87772 22 6.375 22H17.625C18.1223 22 18.5992 21.7893 18.9508 21.4142C19.3025 21.0391 19.5 20.5304 19.5 20V8L13.875 2Z" stroke="#1D202B" stroke-width="1.5" stroke-linecap="round" stroke-linejoin="round"/>
<path d="M13.875 2V8H19.5" stroke="#1D202B" stroke-width="1.5" stroke-linecap="round" stroke-linejoin="round"/>
<path d="M15.75 13.0001H8.25" stroke="#1D202B" stroke-width="1.5" stroke-linecap="round" stroke-linejoin="round"/>
<path d="M15.75 17H8.25" stroke="#1D202B" stroke-width="1.5" stroke-linecap="round" stroke-linejoin="round"/>
<path d="M10.125 9.00012H9.1875H8.25" stroke="#1D202B" stroke-width="1.5" stroke-linecap="round" stroke-linejoin="round"/>
</svg>
