<svg width="24" height="24" viewBox="0 0 24 24" fill="none" xmlns="http://www.w3.org/2000/svg">
<path d="M10.4601 8.00031H18.6734" stroke="#1D202B" stroke-width="1.5" stroke-linecap="round" stroke-linejoin="round"/>
<path d="M5.32646 15.9997H13.5398" stroke="#1D202B" stroke-width="1.5" stroke-linecap="round" stroke-linejoin="round"/>
<path d="M9.70999 8C9.70999 9.22416 8.68554 10.25 7.37999 10.25C6.07444 10.25 5.04999 9.22416 5.04999 8C5.04999 6.77584 6.07444 5.75 7.37999 5.75C8.68554 5.75 9.70999 6.77584 9.70999 8Z" stroke="#1D202B" stroke-width="1.5"/>
<path d="M18.9498 16.0001C18.9498 17.2242 17.9253 18.2501 16.6198 18.2501C15.3142 18.2501 14.2898 17.2242 14.2898 16.0001C14.2898 14.7759 15.3142 13.7501 16.6198 13.7501C17.9253 13.7501 18.9498 14.7759 18.9498 16.0001Z" stroke="#1D202B" stroke-width="1.5"/>
</svg>
