<svg width="24" height="24" viewBox="0 0 24 24" fill="none" xmlns="http://www.w3.org/2000/svg">
<path d="M18 10.6364C18 15.4091 12 19.5 12 19.5C12 19.5 6 15.4091 6 10.6364C6 9.0089 6.63214 7.44809 7.75736 6.2973C8.88258 5.14651 10.4087 4.5 12 4.5C13.5913 4.5 15.1174 5.14651 16.2426 6.2973C17.3679 7.44809 18 9.0089 18 10.6364Z" stroke="#1D202B" stroke-width="1.5" stroke-linecap="round" stroke-linejoin="round"/>
<path d="M12 12.6819C13.1046 12.6819 14 11.7661 14 10.6364C14 9.50675 13.1046 8.59097 12 8.59097C10.8954 8.59097 10 9.50675 10 10.6364C10 11.7661 10.8954 12.6819 12 12.6819Z" stroke="#1D202B" stroke-width="1.5" stroke-linecap="round" stroke-linejoin="round"/>
</svg>
