<svg width="24" height="24" viewBox="0 0 24 24" fill="none" xmlns="http://www.w3.org/2000/svg">
<path d="M12 22C17.5228 22 22 17.5228 22 12C22 6.47715 17.5228 2 12 2C6.47715 2 2 6.47715 2 12C2 17.5228 6.47715 22 12 22Z" stroke="#1D202B" stroke-width="1.5" stroke-linecap="round" stroke-linejoin="round"/>
<path d="M9.08997 8.99997C9.32507 8.33164 9.78912 7.76808 10.3999 7.4091C11.0107 7.05013 11.7289 6.91891 12.4271 7.03868C13.1254 7.15845 13.7588 7.52149 14.215 8.0635C14.6713 8.6055 14.921 9.29149 14.92 9.99997C14.92 12 11.92 13 11.92 13" stroke="#1D202B" stroke-width="1.5" stroke-linecap="round" stroke-linejoin="round"/>
<path d="M12 17.0001H12.0104" stroke="#1D202B" stroke-width="1.5" stroke-linecap="round" stroke-linejoin="round"/>
</svg>
