<svg width="24" height="24" viewBox="0 0 24 24" fill="none" xmlns="http://www.w3.org/2000/svg">
<path d="M12 20C16.4183 20 20 16.4183 20 12C20 7.58172 16.4183 4 12 4C7.58172 4 4 7.58172 4 12C4 16.4183 7.58172 20 12 20Z" stroke="#1D202B" stroke-width="1.5" stroke-linecap="round" stroke-linejoin="round"/>
<path d="M9.67203 9.60032C9.86011 9.06566 10.2313 8.61481 10.72 8.32763C11.2086 8.04045 11.7831 7.93548 12.3418 8.03129C12.9004 8.12711 13.4071 8.41754 13.7721 8.85115C14.1371 9.28475 14.3369 9.83354 14.336 10.4003C14.336 12.0003 11.936 12.8003 11.936 12.8003" stroke="#1D202B" stroke-width="1.5" stroke-linecap="round" stroke-linejoin="round"/>
<path d="M12 16H12.008" stroke="#1D202B" stroke-width="1.5" stroke-linecap="round" stroke-linejoin="round"/>
</svg>
