<svg width="24" height="24" viewBox="0 0 24 24" fill="none" xmlns="http://www.w3.org/2000/svg">
<path d="M17.3975 11.9577C17.3975 11.9577 16.3841 13.3666 15.4836 14.3154C14.5831 15.2641 12.4445 16.8333 11.8816 19.2049C11.3187 21.5764 10.9433 23 9.55502 23C8.16672 23 7.45591 21.5742 7.84641 19.1578C8.25913 16.6031 9.47994 15.1306 9.47994 13.8237H2.88007C2.38144 13.8237 1.90324 13.631 1.55065 13.2881C1.19807 12.9452 0.999986 12.4802 0.999986 11.9952V11.8743C0.999986 11.3893 1.19807 10.9243 1.55065 10.5814C1.90324 10.2385 2.38144 10.0458 2.88007 10.0458L2.38695 9.68119C2.19519 9.5394 2.03969 9.35645 1.93258 9.14662C1.82547 8.93678 1.76963 8.70572 1.76944 8.47145V8.39324C1.76944 8.19353 1.80988 7.99577 1.88847 7.81125C1.96706 7.62674 2.08225 7.45909 2.22746 7.31786C2.37267 7.17664 2.54506 7.06462 2.73479 6.98819C2.92451 6.91177 3.12786 6.87243 3.33322 6.87243H3.48027L3.03157 6.54407C2.8381 6.40216 2.68121 6.21846 2.57327 6.00746C2.46533 5.79646 2.4093 5.56395 2.40961 5.32828C2.40955 5.12853 2.44996 4.93072 2.52852 4.74615C2.60708 4.56159 2.72226 4.39388 2.86747 4.25262C3.01269 4.11135 3.1851 3.99929 3.37486 3.92284C3.56461 3.84638 3.768 3.80703 3.97339 3.80703H4.37944L4.21817 3.65063C3.92496 3.36521 3.76023 2.97828 3.76015 2.57482V2.52125C3.76015 2.11779 3.92495 1.73085 4.2183 1.44556C4.51165 1.16027 4.90951 1 5.32437 1H13.2321C16.2384 1 17.4019 3.04057 17.4019 3.04057L17.3975 11.9577Z" stroke="#1D202B" stroke-width="1.5" stroke-linecap="round" stroke-linejoin="round"/>
<path d="M17.3975 11.9576V12.4169C17.3975 12.6174 17.4794 12.8098 17.6252 12.9516C17.771 13.0933 17.9687 13.173 18.1749 13.173H22.2226C22.4287 13.173 22.6265 13.0933 22.7723 12.9516C22.9181 12.8098 23 12.6174 23 12.4169V1.92414C23 1.72362 22.9181 1.5313 22.7723 1.38951C22.6265 1.24771 22.4287 1.16806 22.2226 1.16806H18.1749C17.9687 1.16806 17.771 1.24771 17.6252 1.38951C17.4794 1.5313 17.3975 1.72362 17.3975 1.92414V3.03926" stroke="#1D202B" stroke-width="1.5" stroke-linecap="round" stroke-linejoin="round"/>
</svg>
