<svg width="24" height="24" viewBox="0 0 24 24" fill="none" xmlns="http://www.w3.org/2000/svg">
<path d="M15.9254 11.9692C15.9254 11.9692 15.1885 12.9939 14.5336 13.6839C13.8786 14.3739 12.3233 15.5152 11.9139 17.2399C11.5045 18.9646 11.2315 20 10.2218 20C9.21218 20 8.69522 18.9631 8.97922 17.2057C9.27938 15.3477 10.1672 14.2768 10.1672 13.3263H5.36734C5.0047 13.3263 4.65691 13.1862 4.40049 12.9368C4.14406 12.6875 4 12.3492 4 11.9965V11.9086C4 11.5559 4.14406 11.2177 4.40049 10.9683C4.65691 10.7189 5.0047 10.5788 5.36734 10.5788L5.00871 10.3136C4.86924 10.2105 4.75616 10.0774 4.67826 9.92481C4.60036 9.7722 4.55975 9.60416 4.5596 9.43378V9.3769C4.5596 9.23166 4.58902 9.08783 4.64617 8.95364C4.70333 8.81945 4.7871 8.69752 4.89271 8.59481C4.99832 8.49211 5.12369 8.41064 5.26168 8.35505C5.39966 8.29947 5.54755 8.27086 5.6969 8.27086H5.80384L5.47752 8.03205C5.33681 7.92884 5.22271 7.79524 5.14421 7.64179C5.06571 7.48834 5.02496 7.31924 5.02518 7.14784C5.02514 7.00257 5.05453 6.8587 5.11166 6.72448C5.1688 6.59025 5.25256 6.46828 5.35817 6.36554C5.46379 6.2628 5.58918 6.1813 5.72718 6.1257C5.86519 6.0701 6.0131 6.04148 6.16248 6.04148H6.45779L6.3405 5.92773C6.12726 5.72015 6.00745 5.43875 6.00739 5.14532V5.10636C6.00739 4.81294 6.12725 4.53153 6.34059 4.32405C6.55394 4.11656 6.8433 4 7.14501 4H12.8961C15.0825 4 15.9287 5.48405 15.9287 5.48405L15.9254 11.9692Z" stroke="#1D202B" stroke-width="1.5" stroke-linecap="round" stroke-linejoin="round"/>
<path d="M15.9254 11.9692V12.3032C15.9254 12.449 15.985 12.5889 16.0911 12.692C16.1971 12.7951 16.3409 12.8531 16.4909 12.8531H19.4346C19.5845 12.8531 19.7284 12.7951 19.8344 12.692C19.9404 12.5889 20 12.449 20 12.3032V4.67209C20 4.52625 19.9404 4.38639 19.8344 4.28327C19.7284 4.18014 19.5845 4.12221 19.4346 4.12221H16.4909C16.3409 4.12221 16.1971 4.18014 16.0911 4.28327C15.985 4.38639 15.9254 4.52625 15.9254 4.67209V5.48309" stroke="#1D202B" stroke-width="1.5" stroke-linecap="round" stroke-linejoin="round"/>
</svg>
