<svg width="24" height="24" viewBox="0 0 24 24" fill="none" xmlns="http://www.w3.org/2000/svg">
<path d="M8.07455 12.0308C8.07455 12.0308 8.81153 11.0061 9.46644 10.3161C10.1214 9.62608 11.6767 8.48484 12.0861 6.76009C12.4955 5.03535 12.7685 4 13.7782 4C14.7878 4 15.3048 5.03692 15.0208 6.79434C14.7206 8.65232 13.8328 9.72317 13.8328 10.6737H18.6327C18.9953 10.6737 19.3431 10.8138 19.5995 11.0632C19.8559 11.3125 20 11.6508 20 12.0035V12.0914C20 12.4441 19.8559 12.7823 19.5995 13.0317C19.3431 13.2811 18.9953 13.4212 18.6327 13.4212L18.9913 13.6864C19.1308 13.7895 19.2438 13.9226 19.3217 14.0752C19.3996 14.2278 19.4403 14.3958 19.4404 14.5662V14.6231C19.4404 14.7683 19.411 14.9122 19.3538 15.0464C19.2967 15.1806 19.2129 15.3025 19.1073 15.4052C19.0017 15.5079 18.8763 15.5894 18.7383 15.6449C18.6003 15.7005 18.4525 15.7291 18.3031 15.7291H18.1962L18.5225 15.968C18.6632 16.0712 18.7773 16.2048 18.8558 16.3582C18.9343 16.5117 18.975 16.6808 18.9748 16.8522C18.9749 16.9974 18.9455 17.1413 18.8883 17.2755C18.8312 17.4098 18.7474 17.5317 18.6418 17.6345C18.5362 17.7372 18.4108 17.8187 18.2728 17.8743C18.1348 17.9299 17.9869 17.9585 17.8375 17.9585H17.5422L17.6595 18.0723C17.8727 18.2798 17.9925 18.5613 17.9926 18.8547V18.8936C17.9926 19.1871 17.8728 19.4685 17.6594 19.676C17.4461 19.8834 17.1567 20 16.855 20H11.1039C8.91751 20 8.07132 18.5159 8.07132 18.5159L8.07455 12.0308Z" stroke="#1D202B" stroke-width="1.5" stroke-linecap="round" stroke-linejoin="round"/>
<path d="M8.07456 12.0308V11.6968C8.07456 11.551 8.01498 11.4111 7.90895 11.308C7.80291 11.2049 7.6591 11.1469 7.50914 11.1469H4.56542C4.41546 11.1469 4.27164 11.2049 4.16561 11.308C4.05957 11.4111 4 11.551 4 11.6968V19.3279C4 19.4737 4.05957 19.6136 4.16561 19.7167C4.27164 19.8199 4.41546 19.8778 4.56542 19.8778H7.50914C7.6591 19.8778 7.80291 19.8199 7.90895 19.7167C8.01498 19.6136 8.07456 19.4737 8.07456 19.3279V18.5169" stroke="#1D202B" stroke-width="1.5" stroke-linecap="round" stroke-linejoin="round"/>
</svg>
