<svg width="24" height="24" viewBox="0 0 24 24" fill="none" xmlns="http://www.w3.org/2000/svg">
<path d="M6.60253 12.0423C6.60253 12.0423 7.61587 10.6334 8.51638 9.68464C9.41689 8.73586 11.5555 7.16665 12.1184 4.79513C12.6813 2.42361 13.0567 1 14.445 1C15.8333 1 16.5441 2.42577 16.1536 4.84222C15.7409 7.39694 14.5201 8.86936 14.5201 10.1763H21.1199C21.6186 10.1763 22.0968 10.369 22.4493 10.7119C22.8019 11.0548 23 11.5198 23 12.0048V12.1257C23 12.6107 22.8019 13.0757 22.4493 13.4186C22.0968 13.7615 21.6186 13.9542 21.1199 13.9542L21.613 14.3188C21.8048 14.4606 21.9603 14.6435 22.0674 14.8534C22.1745 15.0632 22.2304 15.2943 22.2306 15.5286V15.6068C22.2306 15.8065 22.1901 16.0042 22.1115 16.1887C22.0329 16.3733 21.9178 16.5409 21.7725 16.6821C21.6273 16.8234 21.4549 16.9354 21.2652 17.0118C21.0755 17.0882 20.8721 17.1276 20.6668 17.1276H20.5197L20.9684 17.4559C21.1619 17.5978 21.3188 17.7815 21.4267 17.9925C21.5347 18.2035 21.5907 18.4361 21.5904 18.6717C21.5904 18.8715 21.55 19.0693 21.4715 19.2538C21.3929 19.4384 21.2777 19.6061 21.1325 19.7474C20.9873 19.8886 20.8149 20.0007 20.6251 20.0772C20.4354 20.1536 20.232 20.193 20.0266 20.193H19.6206L19.7818 20.3494C20.075 20.6348 20.2398 21.0217 20.2399 21.4252V21.4788C20.2399 21.8822 20.0751 22.2691 19.7817 22.5544C19.4884 22.8397 19.0905 23 18.6756 23H10.7679C7.76159 23 6.59808 20.9594 6.59808 20.9594L6.60253 12.0423Z" stroke="#1D202B" stroke-width="1.5" stroke-linecap="round" stroke-linejoin="round"/>
<path d="M6.60251 12.0424V11.5831C6.60251 11.3826 6.5206 11.1902 6.3748 11.0484C6.229 10.9067 6.03126 10.827 5.82507 10.827H1.77745C1.57126 10.827 1.37351 10.9067 1.22771 11.0484C1.08191 11.1902 1 11.3826 1 11.5831V22.0759C1 22.2764 1.08191 22.4687 1.22771 22.6105C1.37351 22.7523 1.57126 22.8319 1.77745 22.8319H5.82507C6.03126 22.8319 6.229 22.7523 6.3748 22.6105C6.5206 22.4687 6.60251 22.2764 6.60251 22.0759V20.9607" stroke="#1D202B" stroke-width="1.5" stroke-linecap="round" stroke-linejoin="round"/>
</svg>
